<svg xmlns="http://www.w3.org/2000/svg">
  <symbol id="like" width="23" height="21" viewBox="0 0 23 21">
    <path fill="currentColor" d="m12.96 3.78-.62 3.05-.63 2.62h9.09v2.2l-3.03 7.25h-9.4V8.4l4.6-4.62ZM2.1 10.5v8.4-8.4ZM13.8 0 6.9 6.93c-.42.32-.63.84-.63 1.47v10.5c0 1.16.94 2.1 2.1 2.1h9.4c.84 0 1.57-.52 1.88-1.26l3.14-7.45c.1-.21.1-.53.1-.74v-2.1H23a2.1 2.1 0 0 0-2.1-2.1h-6.58l1.05-4.83v-.31c0-.43-.21-.84-.42-1.16L13.8 0ZM4.18 8.4H0V21h4.18V8.4Z" />
  </symbol>
  <symbol id="phone" width="18" height="18" viewBox="0 0 18 18">
    <path fill="#010101" d="M3.6 7.8c1.4 2.8 3.8 5.1 6.6 6.6l2.2-2.2c.3-.3.7-.4 1-.2 1.1.4 2.3.6 3.6.6.6 0 1 .4 1 1V17c0 .6-.4 1-1 1C7.6 18 0 10.4 0 1c0-.6.4-1 1-1h3.5c.6 0 1 .4 1 1 0 1.2.2 2.4.6 3.6.1.3 0 .7-.2 1L3.6 7.8Z"/>
  </symbol>
  <symbol id="email" width="16" height="12" viewBox="0 0 16 12">
    <path fill="#000" d="M8 8c-.3 0-.5-.1-1-.3L0 4v7c0 .5.5 1 1 1h14c.5 0 1-.5 1-1V4L9 7.7c-.5.2-.7.3-1 .3Zm7-8H1C.5 0 0 .5 0 1v.8L8 6l8-4.2V1c0-.5-.5-1-1-1Z"/>
  </symbol>
  <symbol id="vkontakte" width="24" height="14" viewBox="0 0 24 14">
    <path fill="currentcolor" fill-rule="evenodd" d="M23.45.95c.17-.55 0-.95-.8-.95h-2.62c-.67 0-.98.35-1.14.73 0 0-1.34 3.2-3.23 5.27-.61.6-.89.8-1.22.8-.17 0-.42-.2-.42-.74V.95c0-.66-.18-.95-.74-.95H9.15c-.42 0-.67.3-.67.6 0 .61.95.76 1.05 2.5v3.8c0 .84-.16.99-.5.99-.88 0-3.05-3.21-4.33-6.89-.25-.71-.5-1-1.17-1H.9C.15 0 0 .35 0 .73c0 .68.89 4.07 4.14 8.55C6.32 12.34 9.38 14 12.15 14c1.67 0 1.88-.37 1.88-1v-2.32c0-.73.16-.88.69-.88.38 0 1.05.2 2.61 1.67C19.11 13.22 19.4 14 20.41 14h2.62c.75 0 1.13-.37.91-1.1-.24-.72-1.09-1.77-2.21-3.02-.62-.7-1.54-1.47-1.81-1.86-.4-.49-.28-.7 0-1.14 0 0 3.2-4.43 3.53-5.93Z" clip-rule="evenodd"/>
  </symbol>
  <symbol id="telegram" width="22" height="18" viewBox="0 0 22 18">
    <path fill="currentcolor" d="m21.44 1.62-3.17 14.95c-.24 1.05-.86 1.31-1.75.82l-4.83-3.56-2.33 2.24c-.25.26-.47.47-.97.47l.35-4.91 8.95-8.09c.39-.35-.09-.54-.6-.2L6.01 10.32 1.26 8.82C.22 8.5.21 7.8 1.48 7.3L20.1.11c.87-.32 1.62.2 1.34 1.51Z"/>
  </symbol>
  <symbol id="youtube" width="20" height="14" viewBox="0 0 20 14">
    <path fill="currentcolor" d="M17.18 0H2.81C1.31 0 0 1.3 0 2.8v8.3C0 12.7 1.3 14 2.81 14h14.37A2.8 2.8 0 0 0 20 11.2V2.8c.1-1.5-1.2-2.8-2.8-2.8ZM7.03 10.4V3.6L13.87 7l-6.84 3.4Z"/>
  </symbol>
  <symbol id="htmlacademy" width="27" height="35" viewBox="0 0 27 35">
    <path fill="currentcolor" d="M13.6 0h-.1L0 1.4v24.7l13.5 8 13.4-8V1.4L13.6 0ZM25 12.1 13.5 5.3v-.1h-.1l-.1-.1v.1L1.9 12.1v-9l11.5-1.2L25 3.1v9ZM13.4 6.8l11.5 6.7-4.5 2.6-7.1-4.2v1.4l5.9 3.5-.9.5-5-3v1.4l3.8 2.3-.8.5-3-1.8v1.4l1.9 1.1-1.8 1.1L2 13.6l11.4-6.8ZM1.9 15.1l11.4 6.8v1l-7.9-4.7v1.4l8 4.8v1.1l-8-4.7v1.4l8 4.8 8.1-4.9v-5.2l3.4-2v10l-11.5 6.9L1.9 25v-9.9Z"/>
  </symbol>
</svg>
